<svg width="1280" height="204" viewBox="0 0 1280 204" fill="none" xmlns="http://www.w3.org/2000/svg">
<path d="M26.3821 196.118C18.3298 196.118 11.8667 193.787 6.99286 189.125C2.33095 184.251 0 177.788 0 169.736V29.2428C0 21.1905 2.33095 14.8333 6.99286 10.1714C11.8667 5.29762 18.3298 2.86071 26.3821 2.86071H131.593C132.864 4.97976 134.03 7.62856 135.089 10.8071C136.149 13.9857 136.678 17.5881 136.678 21.6143C136.678 28.6071 135.089 33.7988 131.911 37.1893C128.944 40.5797 124.706 42.275 119.196 42.275H48.6321V77.875H122.375C123.646 79.994 124.812 82.6428 125.871 85.8214C126.931 89 127.461 92.6023 127.461 96.6285C127.461 103.621 125.977 108.813 123.011 112.204C120.044 115.382 115.806 116.971 110.296 116.971H48.6321V156.703H132.864C134.136 158.823 135.301 161.577 136.361 164.968C137.42 168.358 137.95 172.067 137.95 176.093C137.95 183.086 136.361 188.171 133.182 191.35C130.215 194.528 126.083 196.118 120.786 196.118H26.3821Z" fill="#DA3832"/>
<path d="M265.289 153.207H202.989C200.658 160.836 198.433 168.358 196.314 175.775C194.407 183.192 192.712 189.761 191.228 195.482C188.473 196.33 185.613 197.071 182.646 197.707C179.679 198.343 176.077 198.661 171.839 198.661C162.515 198.661 155.416 197.071 150.543 193.893C145.881 190.502 143.55 185.734 143.55 179.589C143.55 176.623 143.973 173.762 144.821 171.007C145.669 168.252 146.622 165.074 147.682 161.471C149.165 155.75 151.284 148.651 154.039 140.175C156.794 131.699 159.76 122.587 162.939 112.839C166.329 102.88 169.826 92.7083 173.428 82.325C177.031 71.9416 180.527 62.0881 183.918 52.7642C187.308 43.2285 190.381 34.5405 193.135 26.7C195.89 18.8595 198.221 12.6083 200.128 7.94642C203.307 6.03927 208.181 4.23808 214.75 2.54284C221.531 0.847614 228.206 0 234.775 0C244.31 0 252.681 1.37737 259.885 4.13212C267.302 6.67499 272.07 11.019 274.189 17.1643C278.215 28.3952 282.559 41.4274 287.221 56.2607C291.883 71.094 296.545 86.3511 301.207 102.032C306.081 117.713 310.742 133.182 315.192 148.439C319.642 163.696 323.563 177.364 326.953 189.443C324.622 192.198 321.126 194.423 316.464 196.118C312.014 197.813 306.61 198.661 300.253 198.661C291.141 198.661 284.678 197.071 280.864 193.893C277.262 190.714 274.613 185.734 272.917 178.953L265.289 153.207ZM234.457 44.5C231.49 54.0357 227.782 64.9488 223.332 77.2392C219.094 89.3178 215.067 101.714 211.253 114.429H256.707C253.104 101.079 249.396 88.3642 245.582 76.2857C241.979 63.9952 238.907 53.4 236.364 44.5H234.457Z" fill="#DA3832"/>
<path d="M413.731 42.9107V195.164C411.4 195.8 408.115 196.33 403.877 196.753C399.639 197.389 395.189 197.707 390.527 197.707C380.568 197.707 373.575 196.012 369.548 192.621C365.522 189.231 363.509 183.086 363.509 174.186V42.9107H313.606C312.334 40.7916 311.063 38.0369 309.791 34.6464C308.732 31.2559 308.202 27.5476 308.202 23.5214C308.202 16.3167 309.791 11.125 312.97 7.94642C316.148 4.55595 320.493 2.86071 326.002 2.86071H464.906C466.389 4.97976 467.66 7.73451 468.72 11.125C469.779 14.5155 470.309 18.2238 470.309 22.25C470.309 29.2428 468.72 34.4345 465.541 37.825C462.363 41.2155 458.019 42.9107 452.509 42.9107H413.731Z" fill="#DA3832"/>
<path d="M612.329 5.72143C613.6 7.84047 614.766 10.5952 615.826 13.9857C616.885 17.3762 617.415 21.0845 617.415 25.1107C617.415 32.1035 615.826 37.2952 612.647 40.6857C609.68 44.0762 605.442 45.7714 599.933 45.7714H529.368V87.4107H601.522C602.793 89.7416 603.959 92.4964 605.018 95.6749C606.29 98.8535 606.926 102.562 606.926 106.8C606.926 113.793 605.336 118.984 602.158 122.375C598.979 125.553 594.741 127.143 589.443 127.143H530.004V198.025C527.673 198.661 524.389 199.19 520.151 199.614C515.912 200.25 511.462 200.568 506.801 200.568C496.841 200.568 489.848 198.873 485.822 195.482C482.008 192.092 480.101 185.946 480.101 177.046V32.1036C480.101 24.0512 482.432 17.694 487.093 13.0321C491.967 8.15833 498.43 5.72143 506.483 5.72143H612.329Z" fill="white"/>
<path d="M782.802 67.7035C782.802 79.994 779.518 91.013 772.949 100.761C766.591 110.508 757.903 118.243 746.884 123.964C755.572 135.407 763.837 146.214 771.677 156.386C779.73 166.345 785.663 174.398 789.477 180.543C787.57 187.324 783.968 192.515 778.67 196.118C773.584 199.508 767.969 201.203 761.824 201.203C753.771 201.203 747.626 199.508 743.388 196.118C739.15 192.515 735.124 187.642 731.309 181.496L700.795 134.136H678.863V198.025C676.532 198.661 673.247 199.19 669.009 199.614C664.771 200.25 660.321 200.568 655.659 200.568C645.7 200.568 638.707 198.873 634.681 195.482C630.867 192.092 628.959 185.946 628.959 177.046V22.8857C628.959 18.6476 630.019 15.3631 632.138 13.0321C634.469 10.7012 637.754 8.89999 641.992 7.62856C648.773 5.0857 656.931 3.28451 666.467 2.22499C676.002 1.16547 685.962 0.635706 696.345 0.635706C725.164 0.635706 746.778 6.67499 761.188 18.7536C775.597 30.6202 782.802 46.9369 782.802 67.7035ZM697.934 95.6749C708.106 95.6749 716.37 93.4499 722.727 88.9999C729.084 84.338 732.263 77.3452 732.263 68.0214C732.263 49.7976 720.078 40.6857 695.709 40.6857C692.319 40.6857 689.246 40.8976 686.492 41.3214C683.737 41.5333 680.982 41.8512 678.227 42.275V95.6749H697.934Z" fill="white"/>
<path d="M828.723 198.978C820.67 198.978 814.207 196.648 809.333 191.986C804.671 187.112 802.34 180.649 802.34 172.596V32.1036C802.34 24.0512 804.671 17.694 809.333 13.0321C814.207 8.15833 820.67 5.72143 828.723 5.72143H933.933C935.205 7.84047 936.37 10.4893 937.43 13.6678C938.489 16.8464 939.019 20.4488 939.019 24.475C939.019 31.4678 937.43 36.6595 934.251 40.05C931.284 43.4404 927.046 45.1357 921.537 45.1357H850.973V80.7357H924.715C925.987 82.8547 927.152 85.5035 928.212 88.6821C929.271 91.8607 929.801 95.463 929.801 99.4892C929.801 106.482 928.318 111.674 925.351 115.064C922.384 118.243 918.146 119.832 912.637 119.832H850.973V159.564H935.205C936.476 161.683 937.642 164.438 938.701 167.828C939.761 171.219 940.29 174.927 940.29 178.953C940.29 185.946 938.701 191.032 935.523 194.211C932.556 197.389 928.424 198.978 923.126 198.978H828.723Z" fill="white"/>
<path d="M1015.26 163.061C1026.49 163.061 1034.43 161.153 1039.1 157.339C1043.97 153.313 1046.41 148.545 1046.41 143.036C1046.41 137.95 1044.5 133.924 1040.69 130.957C1037.08 127.778 1031.57 125.024 1024.16 122.693L1007.95 117.607C999.047 114.852 990.994 111.886 983.79 108.707C976.585 105.317 970.44 101.396 965.354 96.9464C960.268 92.2845 956.242 86.8809 953.275 80.7357C950.521 74.3785 949.143 66.75 949.143 57.85C949.143 40.05 955.818 25.9583 969.168 15.575C982.73 5.19166 1001.48 0 1025.43 0C1034.54 0 1042.91 0.635712 1050.54 1.90714C1058.38 3.17856 1065.06 5.19165 1070.56 7.94642C1076.07 10.4893 1080.42 13.6679 1083.6 17.4821C1086.78 21.2964 1088.36 25.7464 1088.36 30.8321C1088.36 35.7059 1087.09 40.05 1084.55 43.8643C1082.22 47.4666 1079.46 50.5393 1076.29 53.0821C1071.41 49.6916 1064.95 46.8309 1056.9 44.5C1048.84 42.169 1040.05 41.0035 1030.51 41.0035C1020.34 41.0035 1012.82 42.5928 1007.95 45.7714C1003.07 48.95 1000.64 52.9762 1000.64 57.85C1000.64 62.0881 1002.23 65.3726 1005.4 67.7035C1008.58 69.8226 1013.56 72.0476 1020.34 74.3785L1037.51 80.1C1047.47 83.4904 1056.16 87.1988 1063.57 91.2249C1071.2 95.0392 1077.56 99.4892 1082.64 104.575C1087.73 109.449 1091.54 115.17 1094.09 121.739C1096.63 128.096 1097.9 135.407 1097.9 143.671C1097.9 152.571 1096.1 160.73 1092.5 168.146C1089.11 175.351 1083.91 181.602 1076.92 186.9C1070.14 192.198 1061.66 196.33 1051.49 199.296C1041.53 202.263 1029.98 203.746 1016.85 203.746C1007.1 203.746 998.093 202.899 989.829 201.203C981.565 199.72 974.36 197.495 968.215 194.528C962.281 191.562 957.513 187.959 953.911 183.721C950.521 179.271 948.825 174.292 948.825 168.782C948.825 163.061 950.415 158.293 953.593 154.478C956.984 150.664 960.692 147.592 964.718 145.261C970.44 149.923 977.538 154.055 986.015 157.657C994.703 161.259 1004.45 163.061 1015.26 163.061Z" fill="white"/>
<path d="M1161.76 198.025C1159.43 198.661 1156.14 199.19 1151.9 199.614C1147.67 200.25 1143.22 200.568 1138.55 200.568C1128.59 200.568 1121.6 198.873 1117.58 195.482C1113.76 192.092 1111.85 185.946 1111.85 177.046V5.0857C1114.18 4.6619 1117.47 4.13214 1121.71 3.49642C1126.16 2.8607 1130.5 2.54284 1134.74 2.54284C1144.28 2.54284 1151.16 4.13213 1155.4 7.31071C1159.64 10.4893 1161.76 16.7405 1161.76 26.0643V82.0071H1230.1V5.0857C1232.43 4.6619 1235.71 4.13214 1239.95 3.49642C1244.4 2.8607 1248.85 2.54284 1253.3 2.54284C1262.62 2.54284 1269.4 4.23808 1273.64 7.62856C1277.88 11.019 1280 17.3762 1280 26.7V198.025C1277.67 198.661 1274.38 199.19 1270.15 199.614C1265.91 200.25 1261.46 200.568 1256.8 200.568C1246.84 200.568 1239.84 198.873 1235.82 195.482C1232 192.092 1230.1 185.946 1230.1 177.046V121.421H1161.76V198.025Z" fill="white"/>
</svg>
