<svg width="129" height="21" viewBox="0 0 129 21" fill="none" xmlns="http://www.w3.org/2000/svg">
<path d="M2.65577 20.032C1.8451 20.032 1.19443 19.7974 0.703766 19.328C0.234432 18.8374 -0.000234365 18.1867 -0.000234365 17.376V3.23202C-0.000234365 2.42135 0.234432 1.78135 0.703766 1.31202C1.19443 0.821351 1.8451 0.576017 2.65577 0.576017H13.2478C13.3758 0.789351 13.4931 1.05602 13.5998 1.37602C13.7064 1.69602 13.7598 2.05868 13.7598 2.46402C13.7598 3.16802 13.5998 3.69068 13.2798 4.03202C12.9811 4.37335 12.5544 4.54402 11.9998 4.54402H4.89577V8.12802H12.3198C12.4478 8.34135 12.5651 8.60802 12.6718 8.92802C12.7784 9.24802 12.8318 9.61068 12.8318 10.016C12.8318 10.72 12.6824 11.2427 12.3838 11.584C12.0851 11.904 11.6584 12.064 11.1038 12.064H4.89577V16.064H13.3758C13.5038 16.2774 13.6211 16.5547 13.7278 16.896C13.8344 17.2374 13.8878 17.6107 13.8878 18.016C13.8878 18.72 13.7278 19.232 13.4078 19.552C13.1091 19.872 12.6931 20.032 12.1598 20.032H2.65577ZM26.7075 15.712H20.4355C20.2008 16.48 19.9768 17.2374 19.7635 17.984C19.5715 18.7307 19.4008 19.392 19.2515 19.968C18.9742 20.0534 18.6862 20.128 18.3875 20.192C18.0888 20.256 17.7262 20.288 17.2995 20.288C16.3608 20.288 15.6462 20.128 15.1555 19.808C14.6862 19.4667 14.4515 18.9867 14.4515 18.368C14.4515 18.0694 14.4942 17.7814 14.5795 17.504C14.6648 17.2267 14.7608 16.9067 14.8675 16.544C15.0168 15.968 15.2302 15.2534 15.5075 14.4C15.7848 13.5467 16.0835 12.6294 16.4035 11.648C16.7448 10.6454 17.0968 9.62135 17.4595 8.57602C17.8222 7.53068 18.1742 6.53868 18.5155 5.60002C18.8568 4.64002 19.1662 3.76535 19.4435 2.97602C19.7208 2.18668 19.9555 1.55735 20.1475 1.08802C20.4675 0.896016 20.9582 0.714683 21.6195 0.544016C22.3022 0.37335 22.9742 0.288017 23.6355 0.288017C24.5955 0.288017 25.4382 0.426683 26.1635 0.704016C26.9102 0.960016 27.3902 1.39735 27.6035 2.01602C28.0088 3.14668 28.4462 4.45868 28.9155 5.95202C29.3848 7.44535 29.8542 8.98135 30.3235 10.56C30.8142 12.1387 31.2835 13.696 31.7315 15.232C32.1795 16.768 32.5742 18.144 32.9155 19.36C32.6808 19.6374 32.3288 19.8614 31.8595 20.032C31.4115 20.2027 30.8675 20.288 30.2275 20.288C29.3102 20.288 28.6595 20.128 28.2755 19.808C27.9128 19.488 27.6462 18.9867 27.4755 18.304L26.7075 15.712ZM23.6035 4.76802C23.3048 5.72802 22.9315 6.82668 22.4835 8.06402C22.0568 9.28002 21.6515 10.528 21.2675 11.808H25.8435C25.4808 10.464 25.1075 9.18402 24.7235 7.96802C24.3608 6.73068 24.0515 5.66402 23.7955 4.76802H23.6035ZM41.6518 4.60802V19.936C41.4171 20 41.0864 20.0534 40.6598 20.096C40.2331 20.16 39.7851 20.192 39.3158 20.192C38.3131 20.192 37.6091 20.0214 37.2038 19.68C36.7984 19.3387 36.5958 18.72 36.5958 17.824V4.60802H31.5718C31.4438 4.39468 31.3158 4.11735 31.1878 3.77602C31.0811 3.43468 31.0278 3.06135 31.0278 2.65602C31.0278 1.93068 31.1878 1.40802 31.5078 1.08802C31.8278 0.746684 32.2651 0.576017 32.8198 0.576017H46.8038C46.9531 0.789351 47.0811 1.06668 47.1878 1.40802C47.2944 1.74935 47.3478 2.12268 47.3478 2.52802C47.3478 3.23202 47.1878 3.75468 46.8678 4.09602C46.5478 4.43735 46.1104 4.60802 45.5558 4.60802H41.6518ZM61.6455 0.576017C61.7735 0.789351 61.8909 1.06668 61.9975 1.40802C62.1042 1.74935 62.1575 2.12268 62.1575 2.52802C62.1575 3.23202 61.9975 3.75468 61.6775 4.09602C61.3789 4.43735 60.9522 4.60802 60.3975 4.60802H53.2935V8.80002H60.5575C60.6855 9.03468 60.8029 9.31202 60.9095 9.63202C61.0375 9.95202 61.1015 10.3254 61.1015 10.752C61.1015 11.456 60.9415 11.9787 60.6215 12.32C60.3015 12.64 59.8749 12.8 59.3415 12.8H53.3575V19.936C53.1229 20 52.7922 20.0534 52.3655 20.096C51.9389 20.16 51.4909 20.192 51.0215 20.192C50.0189 20.192 49.3149 20.0214 48.9095 19.68C48.5255 19.3387 48.3335 18.72 48.3335 17.824V3.23202C48.3335 2.42135 48.5682 1.78135 49.0375 1.31202C49.5282 0.821351 50.1789 0.576017 50.9895 0.576017H61.6455ZM78.8078 6.81602C78.8078 8.05335 78.4771 9.16268 77.8158 10.144C77.1758 11.1254 76.3011 11.904 75.1918 12.48C76.0664 13.632 76.8984 14.72 77.6878 15.744C78.4984 16.7467 79.0958 17.5574 79.4798 18.176C79.2878 18.8587 78.9251 19.3814 78.3918 19.744C77.8798 20.0854 77.3144 20.256 76.6958 20.256C75.8851 20.256 75.2664 20.0854 74.8398 19.744C74.4131 19.3814 74.0078 18.8907 73.6238 18.272L70.5518 13.504H68.3438V19.936C68.1091 20 67.7784 20.0534 67.3518 20.096C66.9251 20.16 66.4771 20.192 66.0078 20.192C65.0051 20.192 64.3011 20.0214 63.8958 19.68C63.5118 19.3387 63.3198 18.72 63.3198 17.824V2.30402C63.3198 1.87735 63.4264 1.54668 63.6398 1.31202C63.8744 1.07735 64.2051 0.896016 64.6318 0.768017C65.3144 0.512016 66.1358 0.330683 67.0958 0.224016C68.0558 0.11735 69.0584 0.0640163 70.1038 0.0640163C73.0051 0.0640163 75.1811 0.672017 76.6318 1.88802C78.0824 3.08268 78.8078 4.72535 78.8078 6.81602ZM70.2638 9.63202C71.2878 9.63202 72.1198 9.40802 72.7598 8.96002C73.3998 8.49068 73.7198 7.78668 73.7198 6.84802C73.7198 5.01335 72.4931 4.09602 70.0398 4.09602C69.6984 4.09602 69.3891 4.11735 69.1118 4.16002C68.8344 4.18135 68.5571 4.21335 68.2798 4.25602V9.63202H70.2638ZM83.4308 20.032C82.6201 20.032 81.9694 19.7974 81.4788 19.328C81.0094 18.8374 80.7748 18.1867 80.7748 17.376V3.23202C80.7748 2.42135 81.0094 1.78135 81.4788 1.31202C81.9694 0.821351 82.6201 0.576017 83.4308 0.576017H94.0228C94.1508 0.789351 94.2681 1.05602 94.3748 1.37602C94.4814 1.69602 94.5348 2.05868 94.5348 2.46402C94.5348 3.16802 94.3748 3.69068 94.0548 4.03202C93.7561 4.37335 93.3294 4.54402 92.7748 4.54402H85.6708V8.12802H93.0948C93.2228 8.34135 93.3401 8.60802 93.4468 8.92802C93.5534 9.24802 93.6068 9.61068 93.6068 10.016C93.6068 10.72 93.4574 11.2427 93.1588 11.584C92.8601 11.904 92.4334 12.064 91.8788 12.064H85.6708V16.064H94.1508C94.2788 16.2774 94.3961 16.5547 94.5028 16.896C94.6094 17.2374 94.6628 17.6107 94.6628 18.016C94.6628 18.72 94.5028 19.232 94.1828 19.552C93.8841 19.872 93.4681 20.032 92.9348 20.032H83.4308ZM102.21 16.416C103.341 16.416 104.141 16.224 104.61 15.84C105.101 15.4347 105.346 14.9547 105.346 14.4C105.346 13.888 105.154 13.4827 104.77 13.184C104.407 12.864 103.853 12.5867 103.106 12.352L101.474 11.84C100.578 11.5627 99.7674 11.264 99.042 10.944C98.3167 10.6027 97.698 10.208 97.186 9.76002C96.674 9.29068 96.2687 8.74668 95.97 8.12802C95.6927 7.48802 95.554 6.72002 95.554 5.82402C95.554 4.03202 96.226 2.61335 97.57 1.56802C98.9354 0.522683 100.823 1.71661e-05 103.234 1.71661e-05C104.151 1.71661e-05 104.994 0.064017 105.762 0.192017C106.551 0.320016 107.223 0.522683 107.778 0.800016C108.333 1.05602 108.77 1.37602 109.09 1.76002C109.41 2.14402 109.57 2.59202 109.57 3.10402C109.57 3.59468 109.442 4.03202 109.186 4.41602C108.951 4.77868 108.674 5.08802 108.354 5.34402C107.863 5.00268 107.213 4.71468 106.402 4.48002C105.591 4.24535 104.706 4.12802 103.746 4.12802C102.722 4.12802 101.965 4.28802 101.474 4.60802C100.983 4.92802 100.738 5.33335 100.738 5.82402C100.738 6.25068 100.898 6.58135 101.218 6.81602C101.538 7.02935 102.039 7.25335 102.722 7.48802L104.45 8.06402C105.453 8.40535 106.327 8.77868 107.074 9.18402C107.842 9.56802 108.482 10.016 108.994 10.528C109.506 11.0187 109.89 11.5947 110.146 12.256C110.402 12.896 110.53 13.632 110.53 14.464C110.53 15.36 110.349 16.1814 109.986 16.928C109.645 17.6534 109.122 18.2827 108.418 18.816C107.735 19.3494 106.882 19.7654 105.858 20.064C104.855 20.3627 103.693 20.512 102.37 20.512C101.389 20.512 100.482 20.4267 99.65 20.256C98.818 20.1067 98.0927 19.8827 97.474 19.584C96.8767 19.2854 96.3967 18.9227 96.034 18.496C95.6927 18.048 95.522 17.5467 95.522 16.992C95.522 16.416 95.682 15.936 96.002 15.552C96.3434 15.168 96.7167 14.8587 97.122 14.624C97.698 15.0934 98.4127 15.5094 99.266 15.872C100.141 16.2347 101.122 16.416 102.21 16.416ZM116.959 19.936C116.724 20 116.393 20.0534 115.967 20.096C115.54 20.16 115.092 20.192 114.623 20.192C113.62 20.192 112.916 20.0214 112.511 19.68C112.127 19.3387 111.935 18.72 111.935 17.824V0.512016C112.169 0.46935 112.5 0.416017 112.927 0.352016C113.375 0.288016 113.812 0.256016 114.239 0.256016C115.199 0.256016 115.892 0.416016 116.319 0.736017C116.745 1.05602 116.959 1.68535 116.959 2.62402V8.25602H123.839V0.512016C124.073 0.46935 124.404 0.416017 124.831 0.352016C125.279 0.288016 125.727 0.256016 126.175 0.256016C127.113 0.256016 127.796 0.426683 128.223 0.768017C128.649 1.10935 128.863 1.74935 128.863 2.68802V19.936C128.628 20 128.297 20.0534 127.871 20.096C127.444 20.16 126.996 20.192 126.527 20.192C125.524 20.192 124.82 20.0214 124.415 19.68C124.031 19.3387 123.839 18.72 123.839 17.824V12.224H116.959V19.936Z" fill="white"/>
</svg>
