<svg width="20" height="20" viewBox="0 0 20 20" fill="none" xmlns="http://www.w3.org/2000/svg">
<g clip-path="url(#clip0_482_1119)">
<path d="M9.87868 19.7574C15.3345 19.7574 19.7574 15.3345 19.7574 9.87868C19.7574 4.42284 15.3345 0 9.87868 0C4.42284 0 0 4.42284 0 9.87868C0 15.3345 4.42284 19.7574 9.87868 19.7574Z" fill="#F0F0F0"/>
<path d="M-0.000488281 9.87882C-0.000488281 14.1263 2.68034 17.7473 6.44215 19.1431V0.614624C2.68034 2.01037 -0.000488281 5.63137 -0.000488281 9.87882Z" fill="#6DA544"/>
<path d="M19.7571 9.87882C19.7571 5.63137 17.0763 2.01037 13.3145 0.614624V19.1431C17.0763 17.7473 19.7571 14.1263 19.7571 9.87882Z" fill="#6DA544"/>
</g>
<defs>
<clipPath id="clip0_482_1119">
<rect width="19.7574" height="19.7574" fill="white"/>
</clipPath>
</defs>
</svg>
