<svg width="64" height="13" viewBox="0 0 64 13" fill="none" xmlns="http://www.w3.org/2000/svg">
<path d="M11.7935 4.80229C11.7441 4.64697 11.649 4.51019 11.5205 4.40989C11.392 4.30958 11.2363 4.25044 11.0736 4.24021L8.14486 4.03805L7.06014 1.3016C7.00091 1.15092 6.89781 1.02149 6.7642 0.930071C6.63058 0.838649 6.4726 0.789441 6.3107 0.788818C6.1488 0.789441 5.99081 0.838649 5.8572 0.930071C5.72358 1.02149 5.62048 1.15092 5.56125 1.3016L4.45681 4.05285L1.54778 4.24021C1.38532 4.2511 1.22987 4.31049 1.10153 4.4107C0.973197 4.51091 0.877882 4.64732 0.82792 4.80229C0.776613 4.95964 0.773615 5.12874 0.819313 5.28781C0.865011 5.44687 0.95731 5.5886 1.08431 5.69472L3.32278 7.58805L2.65716 10.2062C2.6111 10.3833 2.61939 10.5702 2.68094 10.7425C2.74249 10.9149 2.85446 11.0647 3.00229 11.1726C3.14579 11.2756 3.31675 11.3334 3.4933 11.3387C3.66985 11.3439 3.84395 11.2964 3.99334 11.2022L6.30577 9.73778H6.31563L8.80556 11.3106C8.93328 11.3936 9.08219 11.4381 9.23452 11.4388C9.35889 11.4378 9.48138 11.4084 9.59258 11.3526C9.70378 11.2969 9.80072 11.2164 9.87595 11.1174C9.95119 11.0184 10.0027 10.9034 10.0266 10.7813C10.0504 10.6593 10.046 10.5333 10.0135 10.4133L9.30848 7.54861L11.5371 5.69472C11.6641 5.5886 11.7564 5.44687 11.8021 5.28781C11.8478 5.12874 11.8448 4.95964 11.7935 4.80229Z" fill="#EBC309"/>
<path d="M24.4146 4.80241C24.3652 4.64709 24.2701 4.51031 24.1416 4.41001C24.0131 4.30971 23.8574 4.25056 23.6947 4.24033L20.766 4.03818L19.6812 1.30172C19.622 1.15104 19.5189 1.02162 19.3853 0.930193C19.2517 0.838771 19.0937 0.789563 18.9318 0.78894C18.7699 0.789563 18.6119 0.838771 18.4783 0.930193C18.3447 1.02162 18.2416 1.15104 18.1823 1.30172L17.0779 4.05297L14.1689 4.24033C14.0064 4.25122 13.851 4.31062 13.7226 4.41082C13.5943 4.51103 13.499 4.64744 13.449 4.80241C13.3977 4.95976 13.3947 5.12886 13.4404 5.28793C13.4861 5.44699 13.5784 5.58872 13.7054 5.69484L15.9439 7.58818L15.2782 10.2063C15.2322 10.3834 15.2405 10.5703 15.302 10.7426C15.3636 10.915 15.4756 11.0648 15.6234 11.1727C15.7669 11.2757 15.9378 11.3335 16.1144 11.3388C16.2909 11.344 16.465 11.2965 16.6144 11.2023L18.9269 9.7379H18.9367L21.4267 11.3107C21.5544 11.3937 21.7033 11.4383 21.8556 11.4389C21.98 11.438 22.1025 11.4085 22.2137 11.3528C22.3249 11.297 22.4218 11.2166 22.497 11.1175C22.5723 11.0185 22.6238 10.9035 22.6477 10.7814C22.6715 10.6594 22.6671 10.5335 22.6346 10.4134L21.9296 7.54873L24.1582 5.69484C24.2852 5.58872 24.3775 5.44699 24.4232 5.28793C24.4689 5.12886 24.4659 4.95976 24.4146 4.80241Z" fill="#EBC309"/>
<path d="M37.0376 4.80253C36.9882 4.64721 36.8931 4.51043 36.7646 4.41013C36.6362 4.30983 36.4804 4.25068 36.3178 4.24045L33.389 4.0383L32.3043 1.30184C32.2451 1.15116 32.142 1.02174 32.0083 0.930315C31.8747 0.838893 31.7167 0.789685 31.5548 0.789062C31.3929 0.789685 31.235 0.838893 31.1013 0.930315C30.9677 1.02174 30.8646 1.15116 30.8054 1.30184L29.7009 4.05309L26.7919 4.24045C26.6295 4.25135 26.474 4.31074 26.3457 4.41095C26.2173 4.51115 26.122 4.64757 26.0721 4.80253C26.0208 4.95988 26.0178 5.12899 26.0635 5.28805C26.1092 5.44712 26.2015 5.58885 26.3284 5.69497L28.5669 7.5883L27.9013 10.2064C27.8552 10.3835 27.8635 10.5704 27.9251 10.7428C27.9866 10.9151 28.0986 11.0649 28.2464 11.1728C28.3899 11.2758 28.5609 11.3336 28.7374 11.3389C28.914 11.3442 29.0881 11.2966 29.2375 11.2024L31.5499 9.73802H31.5598L34.0497 11.3109C34.1774 11.3939 34.3263 11.4384 34.4787 11.4391C34.603 11.4381 34.7255 11.4086 34.8367 11.3529C34.9479 11.2972 35.0449 11.2167 35.1201 11.1176C35.1953 11.0186 35.2469 10.9036 35.2707 10.7816C35.2946 10.6595 35.2901 10.5336 35.2577 10.4135L34.5526 7.54885L36.7812 5.69497C36.9082 5.58885 37.0005 5.44712 37.0462 5.28805C37.0919 5.12899 37.0889 4.95988 37.0376 4.80253Z" fill="#EBC309"/>
<path d="M49.6587 4.80241C49.6093 4.64709 49.5142 4.51031 49.3857 4.41001C49.2573 4.30971 49.1015 4.25056 48.9388 4.24033L46.0101 4.03818L44.9254 1.30172C44.8661 1.15104 44.763 1.02162 44.6294 0.930193C44.4958 0.838771 44.3378 0.789563 44.1759 0.78894C44.014 0.789563 43.856 0.838771 43.7224 0.930193C43.5888 1.02162 43.4857 1.15104 43.4265 1.30172L42.322 4.05297L39.413 4.24033C39.2506 4.25122 39.0951 4.31062 38.9668 4.41082C38.8384 4.51103 38.7431 4.64744 38.6932 4.80241C38.6418 4.95976 38.6388 5.12886 38.6845 5.28793C38.7302 5.44699 38.8225 5.58872 38.9495 5.69484L41.188 7.58818L40.5224 10.2063C40.4763 10.3834 40.4846 10.5703 40.5462 10.7426C40.6077 10.915 40.7197 11.0648 40.8675 11.1727C41.011 11.2757 41.182 11.3335 41.3585 11.3388C41.5351 11.344 41.7092 11.2965 41.8586 11.2023L44.171 9.7379H44.1809L46.6708 11.3107C46.7985 11.3937 46.9474 11.4383 47.0998 11.4389C47.2241 11.438 47.3466 11.4085 47.4578 11.3528C47.569 11.297 47.666 11.2166 47.7412 11.1175C47.8164 11.0185 47.8679 10.9035 47.8918 10.7814C47.9157 10.6594 47.9112 10.5335 47.8788 10.4134L47.1737 7.54873L49.4023 5.69484C49.5293 5.58872 49.6216 5.44699 49.6673 5.28793C49.713 5.12886 49.71 4.95976 49.6587 4.80241Z" fill="#EBC309"/>
<path d="M62.2818 4.80241C62.2324 4.64709 62.1372 4.51031 62.0088 4.41001C61.8803 4.30971 61.7246 4.25056 61.5619 4.24033L58.6331 4.03818L57.5484 1.30172C57.4892 1.15104 57.3861 1.02162 57.2525 0.930193C57.1189 0.838771 56.9609 0.789563 56.799 0.78894C56.6371 0.789563 56.4791 0.838771 56.3455 0.930193C56.2119 1.02162 56.1088 1.15104 56.0495 1.30172L54.9451 4.05297L52.0361 4.24033C51.8736 4.25122 51.7182 4.31062 51.5898 4.41082C51.4615 4.51103 51.3662 4.64744 51.3162 4.80241C51.2649 4.95976 51.2619 5.12886 51.3076 5.28793C51.3533 5.44699 51.4456 5.58872 51.5726 5.69484L53.8111 7.58818L53.1454 10.2063C53.0994 10.3834 53.1077 10.5703 53.1692 10.7426C53.2308 10.915 53.3427 11.0648 53.4906 11.1727C53.6341 11.2757 53.805 11.3335 53.9816 11.3388C54.1581 11.344 54.3322 11.2965 54.4816 11.2023L56.794 9.7379H56.8039L59.2938 11.3107C59.4216 11.3937 59.5705 11.4383 59.7228 11.4389C59.8472 11.438 59.9697 11.4085 60.0809 11.3528C60.1921 11.297 60.289 11.2166 60.3642 11.1175C60.4395 11.0185 60.491 10.9035 60.5148 10.7814C60.5387 10.6594 60.5342 10.5335 60.5018 10.4134L59.7968 7.54873L62.0254 5.69484C62.1524 5.58872 62.2447 5.44699 62.2904 5.28793C62.3361 5.12886 62.3331 4.95976 62.2818 4.80241Z" fill="white" fill-opacity="0.16"/>
</svg>
